<svg id="Layer_1" data-name="Layer 1" xmlns="http://www.w3.org/2000/svg" viewBox="0 0 40 34"><defs><style>.cls-1{opacity:0.2;}.cls-2{fill:#231f20;}.cls-3{fill:#f4f4f4;}.cls-4{fill:#77b3d4;}.cls-5{fill:#fff;}</style></defs><title>camera</title><g class="cls-1"><path class="cls-2" d="M49.5,22.3h-5s-1.4,0-2.5-2.7c-0.5-1.4-1.1-2.7-2.5-2.7h-10c-1.4,0-2,1.3-2.5,2.7-1,2.7-2.5,2.7-2.5,2.7H22a2.59,2.59,0,0,0-2.5-2.7H17a2.59,2.59,0,0,0-2.5,2.7A2.59,2.59,0,0,0,12,25V46.3A2.59,2.59,0,0,0,14.5,49h35A2.59,2.59,0,0,0,52,46.3V25A2.59,2.59,0,0,0,49.5,22.3Z" transform="translate(-12 -15)"/></g><path class="cls-3" d="M49.5,20h-5s-1.4.3-2.5-2.3c-0.5-1.4-1.1-2.7-2.5-2.7h-10c-1.4,0-2,1.3-2.5,2.7-1,2.7-2.5,2.3-2.5,2.3H22c0-1.5-1.1-2-2.5-2H17c-1.4,0-2.5.5-2.5,2-1.4,0-2.5,1.5-2.5,3V44.3A2.59,2.59,0,0,0,14.5,47h35A2.59,2.59,0,0,0,52,44.3V23C52,21.5,50.9,20,49.5,20Z" transform="translate(-12 -15)"/><circle class="cls-4" cx="22" cy="18" r="9"/><g class="cls-1"><path class="cls-2" d="M34,46A11,11,0,1,1,45,35,11,11,0,0,1,34,46Zm0-18a7,7,0,1,0,7,7A7,7,0,0,0,34,28Z" transform="translate(-12 -15)"/></g><path class="cls-5" d="M34,43.5A10.5,10.5,0,1,1,44.5,33,10.5,10.5,0,0,1,34,43.5Zm0-18A7.5,7.5,0,1,0,41.5,33,7.55,7.55,0,0,0,34,25.5Z" transform="translate(-12 -15)"/></svg>