<?xml version="1.0" encoding="iso-8859-1"?>
<!-- Generator: Adobe Illustrator 20.0.0, SVG Export Plug-In . SVG Version: 6.00 Build 0)  -->
<svg version="1.1" id="Layer_1" xmlns="http://www.w3.org/2000/svg" xmlns:xlink="http://www.w3.org/1999/xlink" x="0px" y="0px"
	 viewBox="0 0 684 792" style="enable-background:new 0 0 684 792;" xml:space="preserve">
<g id="Layer_1_7_">
	<g>
		<circle style="fill:#E0E0D1;" cx="342.338" cy="396.029" r="27.987"/>
	</g>
	<g style="opacity:0.2;">
		<path style="fill:#231F20;" d="M342.338,382.035c8.68,0,15.743,7.062,15.743,15.743s-7.062,15.743-15.743,15.743
			s-15.743-7.062-15.743-15.743S333.657,382.035,342.338,382.035z M342.338,378.537c-10.626,0-19.241,8.615-19.241,19.241
			s8.615,19.241,19.241,19.241c10.626,0,19.241-8.615,19.241-19.241S352.964,378.537,342.338,378.537L342.338,378.537z"/>
	</g>
	<g>
		<path style="fill:#C75C5C;" d="M342.338,380.286c8.68,0,15.743,7.062,15.743,15.743s-7.062,15.743-15.743,15.743
			s-15.743-7.062-15.743-15.743S333.657,380.286,342.338,380.286 M342.338,376.788c-10.626,0-19.241,8.615-19.241,19.241
			s8.615,19.241,19.241,19.241c10.626,0,19.241-8.615,19.241-19.241S352.964,376.788,342.338,376.788L342.338,376.788z"/>
	</g>
	<g style="opacity:0.2;">
		<g>
			<path style="fill:#231F20;" d="M349.335,406.524c-0.448,0-0.895-0.171-1.237-0.513l-7.509-7.508v-7.722
				c0-0.966,0.784-1.749,1.749-1.749c0.966,0,1.749,0.784,1.749,1.749v6.272l6.484,6.485c0.683,0.683,0.683,1.79,0,2.473
				C350.229,406.354,349.782,406.524,349.335,406.524z"/>
		</g>
	</g>
	<g>
		<path style="fill:#4F5D73;" d="M349.335,404.775c-0.448,0-0.895-0.171-1.237-0.513l-7.509-7.508v-7.722
			c0-0.966,0.784-1.749,1.749-1.749c0.966,0,1.749,0.784,1.749,1.749v6.272l6.484,6.485c0.683,0.683,0.683,1.79,0,2.473
			C350.229,404.604,349.782,404.775,349.335,404.775z"/>
	</g>
</g>
</svg>
