<?xml version="1.0" encoding="iso-8859-1"?>
<!-- Generator: Adobe Illustrator 20.0.0, SVG Export Plug-In . SVG Version: 6.00 Build 0)  -->
<svg version="1.1" id="Layer_1" xmlns="http://www.w3.org/2000/svg" xmlns:xlink="http://www.w3.org/1999/xlink" x="0px" y="0px"
	 viewBox="0 0 684 792" style="enable-background:new 0 0 684 792;" xml:space="preserve">
<g>
	<g>
		<circle style="fill:#E0E0D1;" cx="341.714" cy="395.814" r="28.509"/>
	</g>
	<g id="_x33_4_1_">
		<polygon style="fill:#F4F8F8;" points="352.502,410.774 330.925,410.774 330.925,382.541 334.901,382.541 334.202,384.173 
			349.225,384.173 348.527,382.541 352.502,382.541 		"/>
		<path style="fill:#484B4D;" d="M353.363,380.544h-7.02c-1.528-1.036-1.356-3.212-1.356-3.212l-0.011,0.005
			c0.006-0.088,0.027-0.169,0.027-0.259c0-1.815-1.473-3.287-3.288-3.287c-1.818,0-3.29,1.472-3.29,3.287
			c0,0.089,0.021,0.171,0.027,0.259l-0.008-0.005c0,0,0.169,2.176-1.358,3.212h-7.023c-1.322,0-2.395,1.028-2.395,2.3v30.55
			c0,1.273,1.073,2.301,2.395,2.301h23.3c1.324,0,2.397-1.028,2.397-2.301v-30.55C355.76,381.572,354.687,380.544,353.363,380.544z
			 M341.713,374.417c1.442,0,2.613,1.166,2.613,2.612c0,1.441-1.172,2.61-2.613,2.61c-1.442,0-2.611-1.169-2.611-2.61
			C339.102,375.584,340.271,374.417,341.713,374.417z M352.502,410.774h-21.576v-28.233h3.975l-0.698,1.632h15.023l-0.698-1.632
			h3.975V410.774L352.502,410.774z M341.713,379.079c1.133,0,2.053-0.92,2.053-2.051c0-1.133-0.92-2.052-2.053-2.052
			c-1.133,0-2.052,0.919-2.052,2.052C339.661,378.159,340.58,379.079,341.713,379.079z M341.715,375.54
			c0.849,0,1.537,0.688,1.537,1.538c0,0.851-0.688,1.539-1.537,1.539c-0.851,0-1.54-0.688-1.54-1.539
			C340.175,376.228,340.864,375.54,341.715,375.54z"/>
		<g>
			<g>
				<rect x="339.764" y="391.108" style="fill:#484B4D;" width="10.222" height="0.801"/>
				<rect x="339.764" y="395.298" style="fill:#484B4D;" width="10.222" height="0.801"/>
				<rect x="339.764" y="399.489" style="fill:#484B4D;" width="10.222" height="0.803"/>
				<rect x="339.764" y="403.679" style="fill:#484B4D;" width="10.222" height="0.801"/>
			</g>
			<g>
				<polygon style="fill:#FC6E51;" points="333.909,390.472 334.224,390.158 335.344,391.279 337.143,389.479 337.46,389.795 
					335.344,391.909 				"/>
				<polygon style="fill:#FC6E51;" points="333.909,394.664 334.224,394.35 335.344,395.471 337.143,393.671 337.46,393.985 
					335.344,396.1 				"/>
				<polygon style="fill:#FC6E51;" points="333.909,398.854 334.224,398.539 335.344,399.661 337.143,397.862 337.46,398.175 
					335.344,400.292 				"/>
				<polygon style="fill:#FC6E51;" points="333.909,403.044 334.224,402.731 335.344,403.853 337.143,402.052 337.46,402.369 
					335.344,404.482 				"/>
			</g>
		</g>
	</g>
</g>
</svg>
