<?xml version="1.0" encoding="iso-8859-1"?>
<!-- Generator: Adobe Illustrator 20.0.0, SVG Export Plug-In . SVG Version: 6.00 Build 0)  -->
<svg version="1.1" id="Layer_1" xmlns="http://www.w3.org/2000/svg" xmlns:xlink="http://www.w3.org/1999/xlink" x="0px" y="0px"
	 viewBox="0 0 684 792" style="enable-background:new 0 0 684 792;" xml:space="preserve">
<g>
	<circle style="fill:#E0E0D1;" cx="342.434" cy="395.137" r="28.509"/>
</g>
<g>
	<g>
		<circle style="fill:#E0E0D1;" cx="342.434" cy="395.129" r="28.5"/>
	</g>
	<path style="fill:#336699;" d="M334.125,379.412l-12.348,15.913c0,0,20.463,0.732,32.377-12.844L334.125,379.412z"/>
	<path style="fill:#F4D37F;" d="M319.86,412.524"/>
	<path style="fill:#F4D37F;" d="M365.007,412.524c0,0-15.642-20.521-44.067,1.318c0,0,7.5,9.313,20.266,9.786
		C353.971,424.102,362.599,416.191,365.007,412.524z"/>
	<path style="fill:#FFFFFF;" d="M347.176,408.195l-7.916-19.812c-0.13-0.326-0.504-0.487-0.83-0.356l-0.382,0.153
		c-0.326,0.13-0.487,0.504-0.356,0.83l7.916,19.812c0.13,0.326,0.504,0.487,0.83,0.356l0.382-0.153
		C347.146,408.894,347.306,408.521,347.176,408.195z"/>
	<path style="fill:#C75C5C;" d="M334.125,379.412l-3.885,15.223c0,0,8.337-0.56,17.247-6.453L334.125,379.412z"/>
</g>
</svg>
